<svg role="img" viewBox="0 0 24 24" xmlns="http://www.w3.org/2000/svg"><title>DeepSeek</title><path d="M23.748 12.038c-.14-.135-.357-.17-.543-.08l-1.16.578a9.866 9.866 0 0 0-1.327-2.57c.32-.23.505-.595.487-.975-.015-.265-.11-.52-.267-.73-.48-.649-1.317-.892-2.06-.6-.437.17-.775.524-.92.97-.157.48-.066.996.244 1.382.253.315.626.503 1.022.524.14.007.28-.005.414-.036a8.308 8.308 0 0 1 .87 1.774l-1.07.534c-.133.066-.224.192-.243.336-.02.145.033.289.142.386 1.24 1.127 1.727 2.815 1.24 4.38-.487 1.563-1.842 2.71-3.438 2.95-1.598.24-3.202-.47-4.11-1.808a3.885 3.885 0 0 1-.56-1.63l.002-.046c.013-.152-.068-.298-.2-.37l-1.19-.593c-.197-.099-.437-.028-.548.162-.11.19-.067.434.1.573.756.625 1.172 1.56 1.12 2.527-.052.969-.565 1.855-1.376 2.394a3.356 3.356 0 0 1-2.78.44 3.38 3.38 0 0 1-2.167-1.773c-.496-1.007-.44-2.198.148-3.155a3.347 3.347 0 0 1 2.55-1.554l.075-.003c.15-.004.286-.094.348-.232l.567-1.24c.082-.18.024-.392-.139-.504A7.88 7.88 0 0 1 6.94 9.695a8.108 8.108 0 0 1-.356-2.7c.026-.49.09-.977.19-1.456a.39.39 0 0 0-.28-.461l-.14-.037A.39.39 0 0 0 5.9 5.22c-.09.19-.17.383-.243.578-.664 1.787-.665 3.76-.005 5.548.153.42.34.826.558 1.215-.546.31-.977.8-1.22 1.394a3.75 3.75 0 0 0-.024 2.703 3.732 3.732 0 0 0 1.9 2.118 3.72 3.72 0 0 0 2.753.152 3.73 3.73 0 0 0 2.282-2.04c.17-.384.26-.796.264-1.213a5.54 5.54 0 0 0 3.152 1.47c1.85.2 3.695-.535 4.908-1.942 1.213-1.408 1.668-3.333 1.22-5.143l.887-.44c.186-.093.28-.3.228-.504z"/></svg>
